:SAMPLES-PER-SECOND 30
:FULLY-SPECIFIED
:DEGREES
343
root  35.05219888 36.51075889 -14.91615265 9.521698952 1.643105507 3.02827549
lowerback  -8.185620308 0.5018110275 1.942169785
upperback  -3.969360113 0.2067169994 -2.286920071
thorax  0.5021830201 -0.0876654014 -3.439150095
lowerneck  -16.94659996 1.890499949 1.467900038
upperneck  15.93249989 1.420120001 3.25296998
head  7.696930408 1.026578665 0.9894043803
lclavicle  0 -4.497500157e-015 -2.743230041e-014
lhumerus  -43.14319992 24.65910149 71.91259766
lradius  -0.007736393716 -6.507048965e-006 27.93140221
lwrist  4.824992743e-007 -3.790274832e-007 -29.57299995
lhand  -4.405300586e-031 -36.72040176 -10.72439957
lfingers  90 7.125020027 -90
lthumb  94.74225044 -25.56571091 100.8814038
rclavicle  0 -4.497500157e-015 -2.743230041e-014
rhumerus  -58.27119827 -40.59339905 -46.28929901
rradius  -5.16745672e-007 2.214343908e-008 33.0943985
rwrist  1.129822067e-006 0.001802438172 -135.2460022
rhand  -1.775242907e-031 5.986219883 -7.881830215
rfingers  -90 -7.125020027 -90
rthumb  -84.88329923 -8.341505645 -58.31643225
rfemur  -13.03354645 14.84956646 13.75498104
rtibia  -1.209709406 1.074492812 21.73214531
rfoot  -0.9630973339 -18.43719673 -40.3511467
rtoes  4.099939364 19.59211694 -102.066185
lfemur  -10.84651947 -17.80353928 -18.20760536
ltibia  1.282857418 1.106507778 16.47142601
lfoot  0.5106480718 -28.5056572 33.94390488
ltoes  -8.506763157 -18.16811184 -115.6267749
344
root  35.05150802 36.50973763 -14.91875986 9.524241447 1.637790084 3.031224966
lowerback  -8.182770729 0.4979939759 1.968010426
upperback  -3.970149994 0.2034000009 -2.288625002
thorax  0.4983650148 -0.09080079943 -3.452120066
lowerneck  -16.97400093 1.890560031 1.465960026
upperneck  15.90849972 1.421280026 3.257250071
head  7.693759918 1.027969956 0.9915130138
lclavicle  0 -4.497500157e-015 -2.743230041e-014
lhumerus  -43.14839935 24.61619949 71.94920349
lradius  -0.008677425794 -6.507048965e-006 27.94639778
lwrist  4.824992743e-007 -3.790274832e-007 -29.50810051
lhand  -4.405300586e-031 -36.72040176 -10.72439957
lfingers  90 7.125020027 -90
lthumb  94.74225044 -25.56571091 100.8814038
rclavicle  0 -4.497500157e-015 -2.743230041e-014
rhumerus  -58.37129974 -40.4966011 -46.40060043
rradius  -5.16745672e-007 2.214343908e-008 33.05149841
rwrist  1.129822067e-006 0.001802438172 -134.8600006
rhand  -1.775242907e-031 5.986219883 -7.881830215
rfingers  -90 -7.125020027 -90
rthumb  -84.88329923 -8.341505645 -58.31643225
rfemur  -13.05931282 14.84993839 13.75085545
rtibia  -1.21739018 1.082987666 21.76429749
rfoot  -0.9770140052 -18.42548752 -40.35235596
rtoes  4.099939364 19.59211694 -102.066185
lfemur  -10.81841755 -17.78697014 -18.22444153
ltibia  1.305971265 1.120754004 16.43333626
lfoot  0.522197485 -28.51767921 33.96353149
ltoes  -8.506763157 -18.16811184 -115.6267749
345
root  35.05048376 36.50758999 -14.92052454 9.513765335 1.644316554 3.022394896
lowerback  -8.200691223 0.4912189841 1.976610303
upperback  -3.975250006 0.1924429983 -2.28915
thorax  0.4936496615 -0.09692010283 -3.462229967
lowerneck  -16.97270012 1.906260014 1.477180004
upperneck  15.85589981 1.441159964 3.266880035
head  7.675960064 1.039129972 0.9946269393
lclavicle  0 -4.497500157e-015 -2.743230041e-014
lhumerus  -43.13999939 24.52149963 72.00980377
lradius  -0.009619117714 -6.507048965e-006 27.95959854
lwrist  4.824992743e-007 -3.790274832e-007 -29.37350082
lhand  -4.405300586e-031 -36.72040176 -10.72439957
lfingers  90 7.125020027 -90
lthumb  94.74225044 -25.56571091 100.8814038
rclavicle  0 -4.497500157e-015 -2.743230041e-014
rhumerus  -58.39139938 -40.30960083 -46.66050339
rradius  -5.16745672e-007 2.214343908e-008 33.0943985
rwrist  1.129822067e-006 0.001802438172 -134.5829926
rhand  -1.775242907e-031 5.986219883 -7.881830215
rfingers  -90 -7.125020027 -90
rthumb  -84.88329923 -8.341505645 -58.31643225
rfemur  -13.06257725 14.86325932 13.76662731
rtibia  -1.225604773 1.100935578 21.77240372
rfoot  -0.9728097916 -18.38606071 -40.35725021
rtoes  4.099939364 19.59211694 -102.066185
lfemur  -10.86480236 -17.85288811 -18.20022964
ltibia  1.260811567 1.062500358 16.52131081
lfoot  0.4942893684 -28.43966103 33.92640305
ltoes  -8.506763157 -18.16811184 -115.6267749
346
root  35.04938441 36.50763204 -14.92315428 9.504874229 1.657523394 3.021579504
lowerback  -8.216759682 0.4804230034 1.979330301
upperback  -3.984910011 0.176335007 -2.279190063
thorax  0.4901340604 -0.1055800021 -3.462189674
lowerneck  -16.94510078 1.927649975 1.462380052
upperneck  15.77719975 1.474329948 3.292589903
head  7.644430161 1.056310058 1.008200049
lclavicle  0 -4.497500157e-015 -2.743230041e-014
lhumerus  -43.19029999 24.5576992 71.99120331
lradius  -0.01056212746 -6.507048965e-006 27.96072006
lwrist  4.824992743e-007 -3.790274832e-007 -29.43149757
lhand  -4.405300586e-031 -36.72040176 -10.72439957
lfingers  90 7.125020027 -90
lthumb  94.74225044 -25.56571091 100.8814038
rclavicle  0 -4.497500157e-015 -2.743230041e-014
rhumerus  -58.40999985 -40.09700012 -46.92910004
rradius  -5.16745672e-007 2.214343908e-008 33.16210175
rwrist  1.129822067e-006 0.001802438172 -134.7380066
rhand  -1.775242907e-031 5.986219883 -7.881830215
rfingers  -90 -7.125020027 -90
rthumb  -84.88329923 -8.341505645 -58.31643225
rfemur  -13.04673767 14.87553596 13.77778435
rtibia  -1.233024478 1.108114958 21.75808144
rfoot  -0.9595225453 -18.35156059 -40.36536026
rtoes  4.099939364 19.59211694 -102.066185
lfemur  -10.95680428 -17.90061378 -18.16742516
ltibia  1.190072417 1.000345349 16.65452766
lfoot  0.4398518503 -28.37921906 33.80648422
ltoes  -8.506763157 -18.16811184 -115.6267749
